<?xml version="1.0" encoding="UTF-8" standalone="no"?>
<!-- Created with Inkscape (http://www.inkscape.org/) -->

<svg
   xmlns:dc="http://purl.org/dc/elements/1.1/"
   xmlns:cc="http://creativecommons.org/ns#"
   xmlns:rdf="http://www.w3.org/1999/02/22-rdf-syntax-ns#"
   xmlns:svg="http://www.w3.org/2000/svg"
   xmlns="http://www.w3.org/2000/svg"
   xmlns:sodipodi="http://sodipodi.sourceforge.net/DTD/sodipodi-0.dtd"
   xmlns:inkscape="http://www.inkscape.org/namespaces/inkscape"
   width="32px"
   height="32px"
   id="svg2985"
   version="1.1"
   inkscape:version="0.48.4 r9939"
   inkscape:export-filename="/home/lee/addons/script.foscam/resources/media/close.png"
   inkscape:export-xdpi="90"
   inkscape:export-ydpi="90"
   sodipodi:docname="close.svg">
  <defs
     id="defs2987" />
  <sodipodi:namedview
     id="base"
     pagecolor="#ffffff"
     bordercolor="#666666"
     borderopacity="1.0"
     inkscape:pageopacity="0.0"
     inkscape:pageshadow="2"
     inkscape:zoom="14.18633"
     inkscape:cx="4.917794"
     inkscape:cy="19.114684"
     inkscape:current-layer="layer1"
     showgrid="true"
     inkscape:grid-bbox="true"
     inkscape:document-units="px"
     inkscape:window-width="1600"
     inkscape:window-height="841"
     inkscape:window-x="0"
     inkscape:window-y="27"
     inkscape:window-maximized="1" />
  <metadata
     id="metadata2990">
    <rdf:RDF>
      <cc:Work
         rdf:about="">
        <dc:format>image/svg+xml</dc:format>
        <dc:type
           rdf:resource="http://purl.org/dc/dcmitype/StillImage" />
        <dc:title></dc:title>
      </cc:Work>
    </rdf:RDF>
  </metadata>
  <g
     id="layer1"
     inkscape:label="Layer 1"
     inkscape:groupmode="layer">
    <path
       sodipodi:type="arc"
       style="fill:none;stroke:#dddddf;stroke-width:0.9134993;stroke-miterlimit:4;stroke-opacity:0.94117647;stroke-dasharray:none"
       id="path3769"
       sodipodi:cx="22.290865"
       sodipodi:cy="21.328169"
       sodipodi:rx="13.702883"
       sodipodi:ry="13.702883"
       d="m 35.993748,21.328169 a 13.702883,13.702883 0 1 1 -27.4057658,0 13.702883,13.702883 0 1 1 27.4057658,0 z"
       transform="matrix(1.0946612,0,0,1.0946612,-8.400945,-7.3471189)" />
    <path
       style="fill:#808080;fill-opacity:1;stroke:#ffffff;stroke-width:0;stroke-linecap:round;stroke-miterlimit:4;stroke-opacity:0.38039216;stroke-dasharray:none"
       d="m -19.35546,15.278579 c -0.389062,0 -0.782233,0.168191 -1.080352,0.465947 -0.596241,0.595511 -0.596241,1.538034 0,2.133547 l 5.303554,5.321603 -5.303554,5.297081 c -0.596241,0.595512 -0.596241,1.562559 0,2.15807 0.596238,0.595512 1.539913,0.595512 2.136152,0 l 5.328109,-5.321604 5.3035518,5.321604 c 0.59624,0.595512 1.564468,0.595512 2.160708,0 0.596239,-0.595511 0.596239,-1.562558 0,-2.15807 l -5.3281058,-5.297081 5.3281058,-5.321603 c 0.596239,-0.595513 0.596239,-1.538036 0,-2.133547 -0.59624,-0.595512 -1.564468,-0.595512 -2.160707,0 l -5.3035528,5.297081 -5.328109,-5.297081 c -0.298119,-0.297756 -0.666737,-0.465947 -1.0558,-0.465947 z"
       id="rect3778"
       inkscape:connector-curvature="0" />
    <rect
       style="fill:#b3b3b3;fill-opacity:1;stroke:none"
       id="rect3767"
       width="19.427099"
       height="2.0785165"
       x="-9.6542854"
       y="21.411301"
       ry="1.0392581"
       transform="matrix(0.70339332,-0.71080084,0.70339332,0.71080084,0,0)" />
    <rect
       transform="matrix(-0.70339332,-0.71080084,0.70339332,-0.71080084,0,0)"
       ry="1.0392581"
       y="-0.86146879"
       x="-32.519688"
       height="2.0785165"
       width="19.427099"
       id="rect3769"
       style="fill:#b3b3b3;fill-opacity:1;stroke:none" />
  </g>
</svg>
